PathFileType	4	(X/Y/Z)	C:/Users/opensim2020/Desktop/walking_exp_matlab/subject02_walking16_run.trc	
DataRate	CameraRate	NumFrames	NumMarkers	Units	OrigDataRate	OrigDataStartFrame	OrigNumFrames	
100.00	100.00	5	51	mm	100.00	168	124	
Frame#	Time	RTOE			LSHO			LELB			RELB			RFIN			LTHI			LKNE			RWRB			RUPA			LTIB			RASI			LANK			LTOE			RSHO			RWRA			RFRM			LASI			STRN			LFHD			RTHI			RFHD			LWRB			LFIN			LUPA			RKNE			RBHD			LFRM			C7			LWRA			RTIB			CLAV			LHEE			RANK			LBHD			RBAK			RHEE			T10			LPSI			RPSI			*39			*40			*41			*42			*43			*44			*45			*46			*47			*48			*49			*50			
		X1	Y1	Z1	X2	Y2	Z2	X3	Y3	Z3	X4	Y4	Z4	X5	Y5	Z5	X6	Y6	Z6	X7	Y7	Z7	X8	Y8	Z8	X9	Y9	Z9	X10	Y10	Z10	X11	Y11	Z11	X12	Y12	Z12	X13	Y13	Z13	X14	Y14	Z14	X15	Y15	Z15	X16	Y16	Z16	X17	Y17	Z17	X18	Y18	Z18	X19	Y19	Z19	X20	Y20	Z20	X21	Y21	Z21	X22	Y22	Z22	X23	Y23	Z23	X24	Y24	Z24	X25	Y25	Z25	X26	Y26	Z26	X27	Y27	Z27	X28	Y28	Z28	X29	Y29	Z29	X30	Y30	Z30	X31	Y31	Z31	X32	Y32	Z32	X33	Y33	Z33	X34	Y34	Z34	X35	Y35	Z35	X36	Y36	Z36	X37	Y37	Z37	X38	Y38	Z38	X39	Y39	Z39	X40	Y40	Z40	X41	Y41	Z41	X42	Y42	Z42	X43	Y43	Z43	X44	Y44	Z44	X45	Y45	Z45	X46	Y46	Z46	X47	Y47	Z47	X48	Y48	Z48	X49	Y49	Z49	X50	Y50	Z50	X51	Y51	Z51	

16	0.150	39.37943	-2012.23511	24.59947	-175.44269	-1588.05591	1457.33936	-476.06006	-1654.28040	1344.40625	319.49277	-1542.91260	1160.23206	143.83464	-1305.04968	1203.24280	-173.31966	-1556.86499	686.72083	-130.60089	-1476.40259	521.79791	178.39278	-1338.26904	1153.38940	280.63913	-1591.54724	1293.79883	-161.82629	-1579.99744	379.73199	138.71188	-1673.00110	914.84253	-152.50809	-1683.99524	175.53479	-131.31551	-1568.27112	76.05046	159.07454	-1587.13000	1453.73145	150.50456	-1369.84753	1191.16003	252.75549	-1438.76367	1157.53186	-117.41944	-1613.69287	942.28387	-2.44456	-1530.47510	1207.07104	-98.53367	-1527.95813	1688.78162	152.85989	-1840.64392	638.26379	46.55668	-1524.91772	1683.98694	-560.16278	-1647.13977	1088.49390	-557.35870	-1635.75354	1019.59271	-349.74789	-1633.70544	1407.70117	103.62779	-1886.48071	431.89316	43.39159	-1646.23926	1575.25244	-532.55371	-1648.52563	1212.70471	-18.20724	-1663.90442	1477.70935	-504.80145	-1634.16174	1077.32678	78.47704	-2011.13501	290.27878	-20.18937	-1529.21094	1390.63574	-112.00506	-1740.50195	164.14938	18.97377	-2120.66187	140.15588	-99.40537	-1637.65344	1584.83435	54.72673	-1753.60388	1341.08667	-46.69189	-2164.80786	114.38844	-9.24061	-1782.11389	1242.24329	-68.95081	-1823.75684	1018.42072	40.18513	-1843.15527	1015.73413				-3357.32715	2845.84424	1034.56946																									-13.69040	-1644.03601	1734.63391			 
17	0.160	41.07983	-2009.80505	24.76256	-176.94173	-1555.66846	1464.64734	-474.21500	-1627.72766	1352.24365	321.36935	-1500.61084	1173.70593	135.75293	-1270.75757	1223.96313	-171.22498	-1515.39941	699.27826	-130.04126	-1438.53796	530.07971	171.04593	-1301.65112	1173.08228	280.35406	-1546.83069	1306.41174	-161.97273	-1524.71790	371.67859	140.20537	-1631.76025	922.37708	-148.15721	-1602.71082	156.37982	-123.26868	-1475.39075	72.17049	155.70297	-1547.03308	1463.58081	145.57483	-1334.75964	1210.82471	249.73959	-1398.71204	1173.92078	-114.08228	-1575.53210	953.37793	-4.48021	-1493.82202	1215.82239	-101.69656	-1490.81445	1696.41309	155.45811	-1806.90088	647.06793	43.72217	-1487.69531	1691.59534	-550.79993	-1622.56787	1093.50391	-546.20068	-1607.56067	1025.29431	-348.72705	-1603.74060	1415.63293	106.35395	-1864.89087	445.60425	40.27942	-1609.51233	1583.31396	-527.01300	-1623.20117	1219.00977	-18.58169	-1627.72595	1485.64185	-495.85004	-1604.69116	1085.16101	83.25690	-1993.46924	307.03009	-22.96016	-1493.03577	1399.28442	-107.14525	-1657.54932	139.39534	25.94213	-2104.62427	158.15698	-102.50936	-1600.40588	1592.56738	58.08872	-1715.29846	1349.33032	-39.33925	-2147.04834	136.29277	-4.73130	-1745.50415	1249.76270	-65.10641	-1786.85352	1025.79529	47.07365	-1803.10400	1022.84857				-3357.25806	2845.93481	1034.74658																									-17.13507	-1606.58081	1742.36914			 
18	0.170	41.96713	-2007.56799	24.33245	-178.23483	-1522.48267	1471.45093	-471.70322	-1600.90076	1357.23315	323.29190	-1461.52991	1185.37341	128.44296	-1239.34045	1241.02966	-168.40335	-1474.93494	710.45874	-130.83311	-1403.38208	534.36957	164.54221	-1268.01501	1189.12866	280.38385	-1505.36255	1317.46338	-161.96037	-1471.28442	362.20285	141.29779	-1589.87427	930.53564	-143.36035	-1521.54224	139.25369	-115.22919	-1384.76050	72.03851	152.67863	-1507.21899	1472.61963	139.40114	-1303.54492	1225.57764	247.21371	-1361.75928	1187.52759	-110.57052	-1537.30750	964.07458	-6.04345	-1457.11548	1224.05652	-104.07924	-1452.88623	1703.27625	158.54877	-1771.51929	655.72058	41.17598	-1450.75378	1698.82813	-538.86084	-1595.38147	1095.34521	-532.93732	-1577.91772	1028.50989	-347.67181	-1572.98047	1422.05542	108.97494	-1839.02832	459.39059	37.51133	-1572.80249	1591.14673	-520.21661	-1596.86609	1222.06335	-18.91727	-1591.37219	1493.48657	-484.94122	-1573.97192	1090.17505	88.69232	-1971.23718	323.77750	-25.49347	-1457.35889	1407.99670	-102.14751	-1574.26648	117.45697	33.53994	-2083.22900	174.90463	-105.33542	-1563.26831	1600.23657	61.20574	-1676.94543	1357.08777	-32.15784	-2123.32520	158.68257	-0.82071	-1708.72192	1256.68250	-62.01770	-1748.98181	1033.91577	52.65644	-1762.89050	1030.58276				-3357.14404	2845.99414	1034.54785																									-20.38138	-1569.06982	1750.29834			 
19	0.180	43.21827	-2004.21631	27.17092	-179.49286	-1488.14587	1477.54175	-469.41336	-1574.43066	1359.19031	324.92157	-1425.35266	1194.96252	121.92721	-1210.33411	1253.72876	-164.30986	-1438.12061	717.09979	-131.96730	-1369.75781	535.32953	159.35576	-1236.32983	1201.06335	279.80432	-1467.62305	1326.95056	-160.76233	-1419.57104	352.18961	142.15958	-1547.74744	938.73193	-137.45901	-1442.51953	125.10818	-106.08247	-1298.58948	74.99982	150.13397	-1467.37170	1480.25061	135.79704	-1273.33984	1237.25305	245.45914	-1327.12146	1198.25342	-106.91283	-1499.03796	974.01306	-7.73992	-1419.82532	1232.11462	-106.47987	-1415.29919	1709.89575	162.20792	-1735.51855	664.61951	38.85518	-1413.66760	1705.63562	-524.86462	-1566.07153	1094.55115	-517.50055	-1546.47949	1028.99890	-346.92117	-1541.39099	1426.60693	109.84422	-1809.54126	472.60907	35.03125	-1536.33423	1598.97656	-512.41669	-1570.23926	1222.60571	-19.29468	-1554.92554	1500.88843	-472.10104	-1541.64258	1092.79138	93.88003	-1944.43298	339.69809	-28.30845	-1422.98743	1416.19299	-96.67384	-1493.57239	100.01636	43.64901	-2057.65869	189.00310	-107.89317	-1526.39233	1607.74744	64.21849	-1638.66516	1364.43250	-23.69323	-2094.79907	181.36696	2.76462	-1671.54407	1262.87354	-59.24805	-1709.88770	1041.85962	56.19641	-1722.15002	1038.24829				-3357.26221	2845.92310	1034.50012																									-23.31951	-1531.24048	1757.97241			 
20	0.190	46.14453	-1987.65930	40.56518	-180.71263	-1452.84192	1482.68018	-466.78555	-1547.40918	1357.54736	326.13501	-1391.48633	1202.10938	117.25771	-1181.96948	1261.90259	-160.98111	-1407.02112	719.65771	-134.14577	-1338.43811	533.21851	154.04265	-1207.34180	1207.72461	278.97644	-1432.77747	1335.27551	-158.91943	-1370.37695	342.98795	143.44247	-1505.38123	946.63965	-131.40273	-1367.07434	115.59715	-97.59693	-1218.70984	81.75658	147.84718	-1428.03625	1486.46692	132.50172	-1244.36316	1244.86536	243.61063	-1295.92102	1204.40771	-103.31931	-1459.99976	983.27185	-9.03086	-1382.29211	1239.41345	-108.48783	-1377.57983	1715.52478	165.91264	-1699.11462	673.87219	36.92352	-1376.28918	1711.44934	-509.09042	-1534.86731	1091.14709	-498.44388	-1511.00916	1026.62561	-346.32626	-1508.35266	1428.15955	112.69186	-1776.20044	483.41016	32.86116	-1500.59448	1606.17261	-503.61887	-1541.46021	1219.11340	-19.80568	-1518.63696	1507.64441	-458.11826	-1506.54163	1092.34827	96.84537	-1912.83325	354.28809	-30.99186	-1387.73975	1423.49707	-90.17699	-1413.65759	86.12538	51.35858	-2031.12390	204.76840	-110.09428	-1489.65649	1614.72791	67.16216	-1600.66797	1371.44702	-13.12817	-2070.51953	202.52531	6.20104	-1634.08911	1268.22974	-56.88432	-1670.26233	1049.21790	58.76001	-1681.78613	1045.91431				-3357.19043	2845.97681	1034.30579																									-25.86995	-1493.09631	1765.22522			 
